<svg width="48" height="48" viewBox="0 0 48 48" fill="none" xmlns="http://www.w3.org/2000/svg">
<rect width="48" height="48" rx="24" fill="#00CFD0"/>
<g clip-path="url(#clip0_433_1536)">
<path d="M31.3313 14.3873C30.1256 14.6942 28.8855 14.9013 27.6455 15.0029L24.1494 15.2894C23.1302 15.2965 22.1441 15.6647 21.3695 16.3282L21.3514 16.3437L19.0014 18.6496C17.7959 18.3802 16.5302 18.5095 15.3624 19.0446C13.6587 19.8251 12.4729 21.3271 12.1088 23.1653C11.7123 25.1679 12.4161 27.2518 13.9456 28.6038L20.9528 34.798L27.96 28.6038C29.0285 27.6592 29.7276 26.2545 29.8781 24.7817C30.1176 24.6817 30.4372 24.6365 30.8721 24.6398C30.8911 24.64 30.9098 24.6401 30.9288 24.6401C32.7404 24.64 34.4627 23.9436 35.7838 22.6756L36.0001 22.468V13.1992L31.3313 14.3873ZM27.0285 27.55L20.9528 32.9206L14.8772 27.55C13.721 26.5278 13.1889 24.9524 13.4887 23.4385C13.7639 22.0488 14.6604 20.9134 15.9483 20.3233C17.2362 19.7332 18.6816 19.7957 19.9138 20.4948L20.9528 21.0844L21.9919 20.4948C23.6683 19.5437 25.6743 19.7639 27.019 20.9721L24.2546 22.975C23.7757 23.3012 23.4586 23.795 23.361 24.3668C23.2627 24.9431 23.401 25.5186 23.7506 25.9872C24.1596 26.5355 24.8017 26.8344 25.4539 26.8344C25.7912 26.8344 26.1313 26.7545 26.4432 26.5877L28.2699 25.6245C28.0246 26.3724 27.5954 27.0488 27.0285 27.55ZM34.5935 21.8582C33.5563 22.7579 32.2515 23.2438 30.8834 23.2333C30.4167 23.2295 29.725 23.2623 29.1151 23.5886L25.7854 25.3444L25.7808 25.3468C25.4742 25.5113 25.0861 25.4251 24.878 25.1461C24.7609 24.9892 24.7146 24.7965 24.7475 24.6034C24.7805 24.4104 24.8881 24.2439 25.0506 24.1347L25.0609 24.1278L30.5878 20.1234L29.7625 18.9844L28.178 20.1324C26.3931 18.3424 23.6049 17.9625 21.2977 19.2715L20.9528 19.4672L20.608 19.2715C20.5586 19.2435 20.509 19.2164 20.4591 19.1899L22.3016 17.3819C22.8265 16.9394 23.4924 16.6959 24.1795 16.6959H24.2082L27.7605 16.4048C29.0785 16.2968 30.3967 16.0766 31.6782 15.7505L34.5936 15.0086V21.8582H34.5935Z" fill="white"/>
</g>
<defs>
<clipPath id="clip0_433_1536">
<rect width="24" height="24" fill="white" transform="translate(12 12)"/>
</clipPath>
</defs>
</svg>
