<svg width="64" height="62" viewBox="0 0 64 62" fill="none" xmlns="http://www.w3.org/2000/svg">
<path fill-rule="evenodd" clip-rule="evenodd" d="M50.3151 2.22455C48.7255 0.721663 46.6912 0 44.6409 0C42.3329 0 40.0021 0.914106 38.2643 2.66213L37.5185 3.41129L36.7728 2.65984C35.0349 0.914106 32.7041 0 30.3962 0C28.3459 0 26.3116 0.721663 24.722 2.22455C21.2258 5.53046 21.1642 11.0609 24.5349 14.447L37.5185 27.4896L50.5021 14.447C53.8729 11.0609 53.8113 5.53046 50.3151 2.22455Z" fill="#00A5A6"/>
<path fill-rule="evenodd" clip-rule="evenodd" d="M63.0592 34.1312C61.0637 32.7726 58.7124 33.1575 56.6302 34.3648C54.548 35.5722 42.5929 45.8404 42.5929 45.8404L30.8249 45.8427C30.2776 45.8427 29.6846 45.2242 29.6846 44.6766C29.6846 44.0328 30.2434 43.5311 30.8249 43.5311H38.0248C40.5449 43.5311 43.3661 41.8816 43.3661 38.9491C43.3661 35.8334 40.5449 34.3671 38.0248 34.3671C33.6529 34.3671 32.8022 34.3855 32.8022 34.3855C31.0507 34.3855 29.2741 34.2801 27.9057 33.5447C26.0812 32.6054 23.9785 32.0739 21.7343 32.0739C17.9668 32.0739 14.5937 33.5836 12.2812 35.964L0 48.1108L13.6837 61.8568L18.245 57.2748H41.3409C43.6397 57.2748 45.8588 56.4271 47.5761 54.8944L63.2143 37.2721C64.1699 36.4199 64.1152 34.8528 63.0592 34.1312Z" fill="#00CFD0"/>
</svg>
