<svg width="64" height="59" viewBox="0 0 64 59" fill="none" xmlns="http://www.w3.org/2000/svg">
<path fill-rule="evenodd" clip-rule="evenodd" d="M16.982 6.81823C16.3365 7.85297 15.7571 8.92145 15.2444 10.0174C13.2463 9.34192 11.327 8.43439 9.53963 7.31027C13.3234 3.75484 17.865 1.2675 22.794 0C20.5403 1.96355 18.5795 4.25721 16.982 6.81823ZM38.1884 0.0168038C41.459 2.87258 44.1055 6.41519 45.9055 10.4116L46.2651 10.0536C47.6832 8.64138 49.3592 7.63938 51.1435 7.04565C47.4496 3.66833 42.9961 1.26501 38.1884 0.0168038ZM23.8206 11.4375H26.5501C26.9137 10.9522 27.3149 10.4896 27.7528 10.0536C28.0289 9.77869 28.3153 9.52004 28.6099 9.27607V0.327612C25.1974 2.46804 22.3099 5.35406 20.1676 8.78851C19.7222 9.50249 19.3134 10.235 18.94 10.9828C20.5465 11.2829 22.1814 11.4375 23.8206 11.4375ZM16.1506 27.5784V22.8095C16.1506 19.9701 16.6068 17.1674 17.4891 14.4993C19.566 14.9421 21.69 15.1718 23.8206 15.1718H24.6395C24.2691 16.3607 24.0764 17.6113 24.0764 18.8915C24.0764 22.1596 25.3283 25.2358 27.605 27.5785H16.1506V27.5784ZM16.1506 31.3127V36.0816C16.1506 38.921 16.6068 41.7236 17.4891 44.3919C19.566 43.949 21.69 43.7194 23.8206 43.7194H28.6099V31.3127H16.1506ZM37.149 43.7192C39.2793 43.7192 41.4029 43.9488 43.4794 44.3914C43.563 44.1385 43.6429 43.884 43.719 43.6279L32.3599 32.3167V43.7192H37.149ZM23.8206 47.4534H28.6099V58.5634C25.1974 56.4229 22.3099 53.5369 20.1676 50.1025C19.7222 49.3885 19.3135 48.656 18.94 47.9081C20.5464 47.608 22.1814 47.4534 23.8206 47.4534ZM32.3599 47.4534V58.5626C36.5231 55.9524 39.8602 52.2617 42.0312 47.9085C40.4243 47.6081 38.7889 47.4534 37.149 47.4534H32.3599ZM32.3599 0.329728C35.0544 2.02268 37.4205 4.18265 39.3461 6.69339C37.0335 6.18616 34.604 6.33528 32.3599 7.1395V0.329728ZM12.4008 22.8095C12.4008 19.6291 12.9015 16.4888 13.8728 13.4948C11.429 12.6531 9.09138 11.5061 6.93363 10.0767C2.80213 15.04 0.390375 21.117 0 27.5784H12.4008V22.8095ZM12.4006 31.3126V36.0815C12.4006 39.2619 12.9015 42.4022 13.8726 45.3961C11.429 46.2377 9.09125 47.3848 6.93363 48.8143C2.80213 43.8509 0.390375 37.7739 0 31.3126H12.4006ZM16.9821 52.0727C16.3366 51.038 15.7571 49.9695 15.2445 48.8735C13.2463 49.5489 11.327 50.4566 9.53975 51.5807C13.3234 55.1361 17.8651 57.6235 22.7941 58.8911C20.5403 56.9274 18.5795 54.6336 16.9821 52.0727ZM45.7261 48.8738C47.724 49.5492 49.6429 50.4567 51.43 51.5807C47.6459 55.1365 43.1036 57.624 38.1739 58.8915C41.3594 56.1182 43.9345 52.7094 45.7261 48.8738ZM47.4487 44.2256C47.3385 44.6188 47.2204 45.0087 47.095 45.3955C49.5395 46.2372 51.8779 47.3846 54.036 48.8143C58.2913 43.7024 60.7225 37.4094 60.9996 30.7318L47.4487 44.2256Z" fill="#00A5A6"/>
<path d="M63.9415 18.8914C63.9415 21.2323 63.026 23.4331 61.3636 25.0885L45.884 40.5029L30.4042 25.0885C28.7419 23.4331 27.8264 21.2323 27.8264 18.8914C27.8264 16.5503 28.7419 14.3495 30.4042 12.6941C32.1201 10.9855 34.3739 10.1312 36.6277 10.1312C38.8815 10.1312 41.1354 10.9855 42.8512 12.6941L45.884 15.7141L48.9167 12.6941C52.3485 9.27697 57.9323 9.27709 61.3638 12.6941C63.026 14.3495 63.9415 16.5503 63.9415 18.8914Z" fill="#00CFD0"/>
</svg>
