<svg width="400" height="400" viewBox="0 0 400 400" fill="none" xmlns="http://www.w3.org/2000/svg">
<mask id="mask0_1_1165" style="mask-type:luminance" maskUnits="userSpaceOnUse" x="0" y="0" width="400" height="400">
<circle cx="200" cy="200" r="200" fill="white"/>
</mask>
<g mask="url(#mask0_1_1165)">
<path d="M-187.774 81.7065L-188.482 82.4129L-188.482 82.4131L-187.774 81.7065ZM336.192 606.38L336.9 605.673L336.9 605.673L336.192 606.38ZM336.898 607.087L337.605 607.795L338.313 607.089L337.606 606.381L336.898 607.087ZM335.483 608.5L334.775 609.207L335.481 609.915L336.189 609.208L335.483 608.5ZM334.776 607.793L335.484 607.086L335.484 607.086L334.776 607.793ZM-189.19 83.1193L-189.897 83.8257L-189.897 83.8259L-189.19 83.1193ZM-189.896 82.4115L-190.602 81.7037L-191.31 82.4101L-190.604 83.1179L-189.896 82.4115ZM-188.48 80.9987L-187.773 80.2922L-188.479 79.5844L-189.187 80.2909L-188.48 80.9987ZM-170.805 64.7359L-171.513 65.4423L-171.512 65.4425L-170.805 64.7359ZM353.161 589.409L353.869 588.703L353.869 588.702L353.161 589.409ZM353.868 590.117L354.574 590.825L355.282 590.118L354.575 589.41L353.868 590.117ZM352.452 591.53L351.744 592.236L352.451 592.944L353.158 592.238L352.452 591.53ZM351.746 590.822L352.453 590.116L352.453 590.115L351.746 590.822ZM-172.22 66.1487L-172.928 66.8551L-172.928 66.8554L-172.22 66.1487ZM-172.927 65.4409L-173.633 64.7331L-174.341 65.4395L-173.635 66.1473L-172.927 65.4409ZM-171.511 64.0281L-170.804 63.3217L-171.51 62.6139L-172.218 63.3203L-171.511 64.0281ZM-153.832 47.7646L-154.54 48.4711L-154.54 48.4713L-153.832 47.7646ZM370.134 572.438L370.842 571.731L370.841 571.731L370.134 572.438ZM370.84 573.146L371.547 573.853L372.254 573.147L371.548 572.439L370.84 573.146ZM369.425 574.558L368.717 575.265L369.423 575.973L370.131 575.266L369.425 574.558ZM368.718 573.851L369.426 573.144L369.426 573.144L368.718 573.851ZM-155.248 49.1775L-155.956 49.8839L-155.955 49.8841L-155.248 49.1775ZM-155.954 48.4697L-156.661 47.7619L-157.368 48.4683L-156.662 49.1761L-155.954 48.4697ZM-154.539 47.0568L-153.831 46.3504L-154.537 45.6426L-155.245 46.349L-154.539 47.0568ZM-136.864 30.7948L-137.572 31.5012L-137.571 31.5014L-136.864 30.7948ZM387.102 555.468L387.81 554.762L387.81 554.761L387.102 555.468ZM387.809 556.176L388.515 556.884L389.223 556.177L388.517 555.469L387.809 556.176ZM386.393 557.589L385.685 558.295L386.392 559.003L387.1 558.296L386.393 557.589ZM385.687 556.881L386.395 556.174L386.394 556.174L385.687 556.881ZM-138.279 32.2076L-138.987 32.914L-138.987 32.9142L-138.279 32.2076ZM-138.986 31.4998L-139.692 30.792L-140.4 31.4984L-139.694 32.2062L-138.986 31.4998ZM-137.57 30.087L-136.862 29.3806L-137.569 28.6728L-138.277 29.3792L-137.57 30.087ZM-119.891 13.8235L-120.599 14.5299L-120.599 14.5301L-119.891 13.8235ZM404.075 538.497L404.783 537.79L404.783 537.79L404.075 538.497ZM404.781 539.205L405.488 539.912L406.196 539.206L405.489 538.498L404.781 539.205ZM403.366 540.617L402.658 541.324L403.364 542.032L404.072 541.325L403.366 540.617ZM402.659 539.91L403.367 539.203L403.367 539.203L402.659 539.91ZM-121.307 15.2363L-122.015 15.9428L-122.014 15.943L-121.307 15.2363ZM-122.013 14.5286L-122.72 13.8208L-123.427 14.5272L-122.721 15.235L-122.013 14.5286ZM-120.598 13.1157L-119.89 12.4093L-120.596 11.7015L-121.304 12.4079L-120.598 13.1157ZM-102.926 -3.14705L-103.634 -2.44063L-103.634 -2.44042L-102.926 -3.14705ZM421.04 521.526L421.748 520.82L421.748 520.82L421.04 521.526ZM421.746 522.234L422.453 522.942L423.161 522.235L422.454 521.528L421.746 522.234ZM420.331 523.647L419.623 524.353L420.329 525.061L421.037 524.355L420.331 523.647ZM419.624 522.939L420.332 522.233L420.332 522.232L419.624 522.939ZM-104.342 -1.73421L-105.049 -1.0278L-105.049 -1.02758L-104.342 -1.73421ZM-105.048 -2.44201L-105.755 -3.14981L-106.462 -2.44339L-105.756 -1.7356L-105.048 -2.44201ZM-103.633 -3.85484L-102.925 -4.56126L-103.631 -5.26906L-104.339 -4.56264L-103.633 -3.85484ZM-85.9535 -20.1169L-86.6613 -19.4105L-86.661 -19.4103L-85.9535 -20.1169ZM438.013 504.556L438.72 503.85L438.72 503.85L438.013 504.556ZM438.719 505.264L439.425 505.972L440.133 505.265L439.427 504.558L438.719 505.264ZM437.303 506.677L436.596 507.383L437.302 508.091L438.01 507.385L437.303 506.677ZM436.597 505.969L437.305 505.263L437.305 505.263L436.597 505.969ZM-87.369 -18.7041L-88.0768 -17.9977L-88.0766 -17.9975L-87.369 -18.7041ZM-88.0755 -19.4119L-88.7819 -20.1197L-89.4897 -19.4133L-88.7833 -18.7055L-88.0755 -19.4119ZM-86.6599 -20.8247L-85.9521 -21.5311L-86.6585 -22.2389L-87.3663 -21.5325L-86.6599 -20.8247ZM-68.9808 -37.0868L-69.6886 -36.3804L-69.6884 -36.3802L-68.9808 -37.0868ZM454.985 487.586L455.693 486.88L455.693 486.88L454.985 487.586ZM455.692 488.294L456.398 489.002L457.106 488.296L456.4 487.588L455.692 488.294ZM454.276 489.707L453.568 490.413L454.275 491.121L454.983 490.415L454.276 489.707ZM453.57 488.999L454.277 488.293L454.277 488.293L453.57 488.999ZM-70.3964 -35.674L-71.1042 -34.9675L-71.104 -34.9673L-70.3964 -35.674ZM-71.1028 -36.3818L-71.8092 -37.0896L-72.517 -36.3831L-71.8106 -35.6753L-71.1028 -36.3818ZM-69.6872 -37.7946L-68.9794 -38.501L-69.6859 -39.2088L-70.3937 -38.5024L-69.6872 -37.7946ZM-52.0123 -54.058L-52.7201 -53.3516L-52.7199 -53.3514L-52.0123 -54.058ZM471.954 470.615L472.662 469.909L472.661 469.909L471.954 470.615ZM472.66 471.323L473.367 472.031L474.074 471.324L473.368 470.617L472.66 471.323ZM471.245 472.736L470.537 473.442L471.243 474.15L471.951 473.444L471.245 472.736ZM470.538 472.028L471.246 471.322L471.246 471.321L470.538 472.028ZM-53.4279 -52.6452L-54.1357 -51.9388L-54.1355 -51.9386L-53.4279 -52.6452ZM-54.1343 -53.353L-54.8408 -54.0608L-55.5486 -53.3544L-54.8421 -52.6466L-54.1343 -53.353ZM-52.7187 -54.7658L-52.0109 -55.4723L-52.7174 -56.1801L-53.4252 -55.4736L-52.7187 -54.7658ZM-35.039 -71.0286L-35.7468 -70.3222L-35.7466 -70.322L-35.039 -71.0286ZM488.927 453.645L489.635 452.938L489.635 452.938L488.927 453.645ZM489.634 454.352L490.34 455.06L491.048 454.354L490.341 453.646L489.634 454.352ZM488.218 455.765L487.51 456.472L488.217 457.179L488.924 456.473L488.218 455.765ZM487.512 455.057L488.219 454.351L488.219 454.351L487.512 455.057ZM-36.4546 -69.6158L-37.1624 -68.9094L-37.1622 -68.9091L-36.4546 -69.6158ZM-37.161 -70.3236L-37.8674 -71.0314L-38.5752 -70.325L-37.8688 -69.6172L-37.161 -70.3236ZM-35.7454 -71.7364L-35.0376 -72.4428L-35.744 -73.1506L-36.4518 -72.4442L-35.7454 -71.7364ZM-18.0705 -87.9985L-18.7783 -87.2921L-18.7781 -87.2918L-18.0705 -87.9985ZM505.896 436.675L506.603 435.968L506.603 435.968L505.896 436.675ZM506.602 437.383L507.308 438.09L508.016 437.384L507.31 436.676L506.602 437.383ZM505.186 438.795L504.479 439.502L505.185 440.21L505.893 439.503L505.186 438.795ZM504.48 438.088L505.188 437.381L505.188 437.381L504.48 438.088ZM-19.4861 -86.5856L-20.1939 -85.8792L-20.1937 -85.879L-19.4861 -86.5856ZM-20.1925 -87.2934L-20.8989 -88.0012L-21.6067 -87.2948L-20.9003 -86.587L-20.1925 -87.2934ZM-18.7769 -88.7063L-18.0691 -89.4127L-18.7755 -90.1205L-19.4833 -89.4141L-18.7769 -88.7063ZM-1.10202 -104.97L-1.80982 -104.263L-1.80961 -104.263L-1.10202 -104.97ZM522.864 419.703L523.572 418.997L523.572 418.997L522.864 419.703ZM523.571 420.411L524.277 421.119L524.985 420.413L524.278 419.705L523.571 420.411ZM522.155 421.824L521.447 422.531L522.154 423.238L522.861 422.532L522.155 421.824ZM521.448 421.116L522.156 420.41L522.156 420.41L521.448 421.116ZM-2.51762 -103.557L-3.22542 -102.85L-3.2252 -102.85L-2.51762 -103.557ZM-3.22403 -104.265L-3.93045 -104.972L-4.63825 -104.266L-3.93183 -103.558L-3.22403 -104.265ZM-1.80844 -105.678L-1.10064 -106.384L-1.80706 -107.092L-2.51486 -106.385L-1.80844 -105.678ZM15.8706 -121.941L15.1628 -121.235L15.163 -121.234L15.8706 -121.941ZM539.837 402.732L540.545 402.026L540.544 402.026L539.837 402.732ZM540.543 403.44L541.25 404.148L541.957 403.441L541.251 402.734L540.543 403.44ZM539.128 404.853L538.42 405.559L539.126 406.267L539.834 405.561L539.128 404.853ZM538.421 404.145L539.129 403.439L539.129 403.438L538.421 404.145ZM14.455 -120.528L13.7472 -119.822L13.7474 -119.822L14.455 -120.528ZM13.7486 -121.236L13.0422 -121.944L12.3344 -121.237L13.0408 -120.53L13.7486 -121.236ZM15.1642 -122.649L15.872 -123.355L15.1656 -124.063L14.4578 -123.357L15.1642 -122.649ZM32.8432 -138.911L32.1354 -138.204L32.1357 -138.204L32.8432 -138.911ZM556.809 385.762L557.517 385.056L557.517 385.056L556.809 385.762ZM557.516 386.47L558.222 387.178L558.93 386.472L558.224 385.764L557.516 386.47ZM556.1 387.883L555.392 388.589L556.099 389.297L556.807 388.591L556.1 387.883ZM555.394 387.175L556.102 386.469L556.101 386.469L555.394 387.175ZM31.4276 -137.498L30.7199 -136.792L30.7201 -136.791L31.4276 -137.498ZM30.7212 -138.206L30.0148 -138.914L29.307 -138.207L30.0134 -137.499L30.7212 -138.206ZM32.1368 -139.619L32.8446 -140.325L32.1382 -141.033L31.4304 -140.326L32.1368 -139.619ZM49.8124 -155.881L49.1046 -155.175L49.1048 -155.175L49.8124 -155.881ZM573.779 368.792L574.486 368.085L574.486 368.085L573.779 368.792ZM574.485 369.5L575.191 370.207L575.899 369.501L575.193 368.793L574.485 369.5ZM573.069 370.912L572.362 371.619L573.068 372.327L573.776 371.62L573.069 370.912ZM572.363 370.205L573.071 369.498L573.071 369.498L572.363 370.205ZM48.3968 -154.469L47.689 -153.762L47.6892 -153.762L48.3968 -154.469ZM47.6904 -155.176L46.984 -155.884L46.2762 -155.178L46.9826 -154.47L47.6904 -155.176ZM49.106 -156.589L49.8138 -157.296L49.1074 -158.003L48.3996 -157.297L49.106 -156.589ZM66.7844 -172.852L66.0766 -172.146L66.0768 -172.145L66.7844 -172.852ZM590.75 351.821L591.458 351.115L591.458 351.115L590.75 351.821ZM591.457 352.529L592.163 353.237L592.871 352.53L592.165 351.823L591.457 352.529ZM590.041 353.942L589.334 354.648L590.04 355.356L590.748 354.65L590.041 353.942ZM589.335 353.234L590.043 352.528L590.042 352.527L589.335 353.234ZM65.3688 -171.439L64.661 -170.733L64.6612 -170.733L65.3688 -171.439ZM64.6624 -172.147L63.9559 -172.855L63.2481 -172.148L63.9546 -171.441L64.6624 -172.147ZM66.078 -173.56L66.7858 -174.266L66.0793 -174.974L65.3715 -174.268L66.078 -173.56ZM83.7536 -189.823L83.0458 -189.116L83.046 -189.116L83.7536 -189.823ZM607.72 334.851L608.427 334.144L608.427 334.144L607.72 334.851ZM608.426 335.558L609.132 336.266L609.84 335.56L609.134 334.852L608.426 335.558ZM607.01 336.971L606.303 337.678L607.009 338.386L607.717 337.679L607.01 336.971ZM606.304 336.264L607.012 335.557L607.012 335.557L606.304 336.264ZM82.338 -188.41L81.6302 -187.703L81.6304 -187.703L82.338 -188.41ZM81.6315 -189.118L80.9251 -189.825L80.2173 -189.119L80.9237 -188.411L81.6315 -189.118ZM83.0471 -190.53L83.7549 -191.237L83.0485 -191.945L82.3407 -191.238L83.0471 -190.53ZM100.726 -206.794L100.018 -206.087L100.019 -206.087L100.726 -206.794ZM624.692 317.879L625.4 317.173L625.4 317.173L624.692 317.879ZM625.399 318.587L626.105 319.295L626.813 318.589L626.107 317.881L625.399 318.587ZM623.983 320L623.275 320.706L623.982 321.414L624.69 320.708L623.983 320ZM623.277 319.292L623.985 318.586L623.984 318.586L623.277 319.292ZM99.3106 -205.381L98.6028 -204.675L98.603 -204.674L99.3106 -205.381ZM98.6042 -206.089L97.8978 -206.797L97.19 -206.09L97.8964 -205.382L98.6042 -206.089ZM100.02 -207.502L100.728 -208.208L100.021 -208.916L99.3134 -208.209L100.02 -207.502ZM-187.774 81.7065L-188.482 82.4131L335.484 607.086L336.192 606.38L336.9 605.673L-187.066 80.9998L-187.774 81.7065ZM336.192 606.38L335.484 607.086L336.191 607.794L336.898 607.087L337.606 606.381L336.9 605.673L336.192 606.38ZM336.898 607.087L336.192 606.38L334.776 607.793L335.483 608.5L336.189 609.208L337.605 607.795L336.898 607.087ZM335.483 608.5L336.191 607.794L335.484 607.086L334.776 607.793L334.069 608.499L334.775 609.207L335.483 608.5ZM334.776 607.793L335.484 607.086L-188.482 82.4127L-189.19 83.1193L-189.897 83.8259L334.069 608.499L334.776 607.793ZM-189.19 83.1193L-188.482 82.4129L-189.188 81.7051L-189.896 82.4115L-190.604 83.1179L-189.897 83.8257L-189.19 83.1193ZM-189.896 82.4115L-189.19 83.1193L-187.774 81.7065L-188.48 80.9987L-189.187 80.2909L-190.602 81.7037L-189.896 82.4115ZM-188.48 80.9987L-189.188 81.7051L-188.482 82.4129L-187.774 81.7065L-187.066 81L-187.773 80.2922L-188.48 80.9987ZM-170.805 64.7359L-171.512 65.4425L352.454 590.116L353.161 589.409L353.869 588.702L-170.097 64.0293L-170.805 64.7359ZM353.161 589.409L352.453 590.116L353.16 590.823L353.868 590.117L354.575 589.41L353.869 588.703L353.161 589.409ZM353.868 590.117L353.161 589.409L351.746 590.822L352.452 591.53L353.158 592.238L354.574 590.825L353.868 590.117ZM352.452 591.53L353.16 590.823L352.453 590.116L351.746 590.822L351.038 591.528L351.744 592.236L352.452 591.53ZM351.746 590.822L352.453 590.115L-171.513 65.4421L-172.22 66.1487L-172.928 66.8554L351.038 591.529L351.746 590.822ZM-172.22 66.1487L-171.513 65.4423L-172.219 64.7345L-172.927 65.4409L-173.635 66.1473L-172.928 66.8551L-172.22 66.1487ZM-172.927 65.4409L-172.22 66.1487L-170.805 64.7359L-171.511 64.0281L-172.218 63.3203L-173.633 64.7331L-172.927 65.4409ZM-171.511 64.0281L-172.219 64.7345L-171.513 65.4423L-170.805 64.7359L-170.097 64.0295L-170.804 63.3217L-171.511 64.0281ZM-153.832 47.7646L-154.54 48.4713L369.426 573.144L370.134 572.438L370.841 571.731L-153.125 47.058L-153.832 47.7646ZM370.134 572.438L369.426 573.144L370.132 573.852L370.84 573.146L371.548 572.439L370.842 571.731L370.134 572.438ZM370.84 573.146L370.134 572.438L368.718 573.851L369.425 574.558L370.131 575.266L371.547 573.853L370.84 573.146ZM369.425 574.558L370.132 573.852L369.426 573.144L368.718 573.851L368.01 574.557L368.717 575.265L369.425 574.558ZM368.718 573.851L369.426 573.144L-154.54 48.4708L-155.248 49.1775L-155.955 49.8841L368.011 574.557L368.718 573.851ZM-155.248 49.1775L-154.54 48.4711L-155.246 47.7633L-155.954 48.4697L-156.662 49.1761L-155.956 49.8839L-155.248 49.1775ZM-155.954 48.4697L-155.248 49.1775L-153.832 47.7646L-154.539 47.0568L-155.245 46.349L-156.661 47.7619L-155.954 48.4697ZM-154.539 47.0568L-155.246 47.7633L-154.54 48.4711L-153.832 47.7646L-153.124 47.0582L-153.831 46.3504L-154.539 47.0568ZM-136.864 30.7948L-137.571 31.5014L386.395 556.175L387.102 555.468L387.81 554.761L-136.156 30.0881L-136.864 30.7948ZM387.102 555.468L386.395 556.174L387.101 556.882L387.809 556.176L388.517 555.469L387.81 554.762L387.102 555.468ZM387.809 556.176L387.102 555.468L385.687 556.881L386.393 557.589L387.1 558.296L388.515 556.884L387.809 556.176ZM386.393 557.589L387.101 556.882L386.395 556.174L385.687 556.881L384.979 557.587L385.685 558.295L386.393 557.589ZM385.687 556.881L386.394 556.174L-137.572 31.501L-138.279 32.2076L-138.987 32.9142L384.979 557.587L385.687 556.881ZM-138.279 32.2076L-137.572 31.5012L-138.278 30.7934L-138.986 31.4998L-139.694 32.2062L-138.987 32.914L-138.279 32.2076ZM-138.986 31.4998L-138.279 32.2076L-136.864 30.7948L-137.57 30.087L-138.277 29.3792L-139.692 30.792L-138.986 31.4998ZM-137.57 30.087L-138.278 30.7934L-137.572 31.5012L-136.864 30.7948L-136.156 30.0884L-136.862 29.3806L-137.57 30.087ZM-119.891 13.8235L-120.599 14.5301L403.367 539.203L404.075 538.497L404.783 537.79L-119.184 13.1169L-119.891 13.8235ZM404.075 538.497L403.367 539.203L404.074 539.911L404.781 539.205L405.489 538.498L404.783 537.79L404.075 538.497ZM404.781 539.205L404.075 538.497L402.659 539.91L403.366 540.617L404.072 541.325L405.488 539.912L404.781 539.205ZM403.366 540.617L404.074 539.911L403.367 539.203L402.659 539.91L401.952 540.616L402.658 541.324L403.366 540.617ZM402.659 539.91L403.367 539.203L-120.599 14.5297L-121.307 15.2363L-122.014 15.943L401.952 540.616L402.659 539.91ZM-121.307 15.2363L-120.599 14.5299L-121.305 13.8221L-122.013 14.5286L-122.721 15.235L-122.015 15.9428L-121.307 15.2363ZM-122.013 14.5286L-121.307 15.2363L-119.891 13.8235L-120.598 13.1157L-121.304 12.4079L-122.72 13.8208L-122.013 14.5286ZM-120.598 13.1157L-121.305 13.8221L-120.599 14.5299L-119.891 13.8235L-119.183 13.1171L-119.89 12.4093L-120.598 13.1157ZM-102.926 -3.14705L-103.634 -2.44042L420.332 522.233L421.04 521.526L421.748 520.82L-102.219 -3.85368L-102.926 -3.14705ZM421.04 521.526L420.332 522.233L421.039 522.94L421.746 522.234L422.454 521.528L421.748 520.82L421.04 521.526ZM421.746 522.234L421.04 521.526L419.624 522.939L420.331 523.647L421.037 524.355L422.453 522.942L421.746 522.234ZM420.331 523.647L421.039 522.94L420.332 522.233L419.624 522.939L418.917 523.645L419.623 524.353L420.331 523.647ZM419.624 522.939L420.332 522.232L-103.634 -2.44084L-104.342 -1.73421L-105.049 -1.02758L418.917 523.646L419.624 522.939ZM-104.342 -1.73421L-103.634 -2.44063L-104.34 -3.14843L-105.048 -2.44201L-105.756 -1.7356L-105.049 -1.0278L-104.342 -1.73421ZM-105.048 -2.44201L-104.342 -1.73422L-102.926 -3.14705L-103.633 -3.85484L-104.339 -4.56264L-105.755 -3.14981L-105.048 -2.44201ZM-103.633 -3.85484L-104.34 -3.14843L-103.634 -2.44063L-102.926 -3.14705L-102.218 -3.85346L-102.925 -4.56126L-103.633 -3.85484ZM-85.9535 -20.1169L-86.661 -19.4103L437.305 505.263L438.013 504.556L438.72 503.85L-85.2459 -20.8235L-85.9535 -20.1169ZM438.013 504.556L437.305 505.263L438.011 505.971L438.719 505.264L439.427 504.558L438.72 503.85L438.013 504.556ZM438.719 505.264L438.013 504.556L436.597 505.969L437.303 506.677L438.01 507.385L439.425 505.972L438.719 505.264ZM437.303 506.677L438.011 505.971L437.305 505.263L436.597 505.969L435.889 506.676L436.596 507.383L437.303 506.677ZM436.597 505.969L437.305 505.263L-86.6615 -19.4107L-87.369 -18.7041L-88.0766 -17.9975L435.889 506.676L436.597 505.969ZM-87.369 -18.7041L-86.6613 -19.4105L-87.3677 -20.1183L-88.0755 -19.4119L-88.7833 -18.7055L-88.0768 -17.9977L-87.369 -18.7041ZM-88.0755 -19.4119L-87.3691 -18.7041L-85.9535 -20.1169L-86.6599 -20.8247L-87.3663 -21.5325L-88.7819 -20.1197L-88.0755 -19.4119ZM-86.6599 -20.8247L-87.3677 -20.1183L-86.6613 -19.4105L-85.9535 -20.1169L-85.2457 -20.8233L-85.9521 -21.5311L-86.6599 -20.8247ZM-68.9808 -37.0868L-69.6884 -36.3802L454.278 488.293L454.985 487.586L455.693 486.88L-68.2732 -37.7934L-68.9808 -37.0868ZM454.985 487.586L454.277 488.293L454.984 489.001L455.692 488.294L456.4 487.588L455.693 486.88L454.985 487.586ZM455.692 488.294L454.985 487.586L453.57 488.999L454.276 489.707L454.983 490.415L456.398 489.002L455.692 488.294ZM454.276 489.707L454.984 489.001L454.277 488.293L453.57 488.999L452.862 489.706L453.568 490.413L454.276 489.707ZM453.57 488.999L454.277 488.293L-69.6888 -36.3806L-70.3964 -35.674L-71.104 -34.9673L452.862 489.706L453.57 488.999ZM-70.3964 -35.674L-69.6886 -36.3804L-70.395 -37.0882L-71.1028 -36.3818L-71.8106 -35.6753L-71.1042 -34.9675L-70.3964 -35.674ZM-71.1028 -36.3818L-70.3964 -35.674L-68.9808 -37.0868L-69.6872 -37.7946L-70.3937 -38.5024L-71.8092 -37.0896L-71.1028 -36.3818ZM-69.6872 -37.7946L-70.395 -37.0882L-69.6886 -36.3804L-68.9808 -37.0868L-68.273 -37.7932L-68.9794 -38.501L-69.6872 -37.7946ZM-52.0123 -54.058L-52.7199 -53.3514L471.246 471.322L471.954 470.615L472.661 469.909L-51.3047 -54.7647L-52.0123 -54.058ZM471.954 470.615L471.246 471.322L471.952 472.029L472.66 471.323L473.368 470.617L472.662 469.909L471.954 470.615ZM472.66 471.323L471.954 470.615L470.538 472.028L471.245 472.736L471.951 473.444L473.367 472.031L472.66 471.323ZM471.245 472.736L471.952 472.029L471.246 471.322L470.538 472.028L469.83 472.734L470.537 473.442L471.245 472.736ZM470.538 472.028L471.246 471.321L-52.7203 -53.3518L-53.4279 -52.6452L-54.1355 -51.9386L469.831 472.735L470.538 472.028ZM-53.4279 -52.6452L-52.7201 -53.3516L-53.4265 -54.0594L-54.1343 -53.353L-54.8421 -52.6466L-54.1357 -51.9388L-53.4279 -52.6452ZM-54.1343 -53.353L-53.4279 -52.6452L-52.0123 -54.058L-52.7187 -54.7658L-53.4252 -55.4736L-54.8408 -54.0608L-54.1343 -53.353ZM-52.7187 -54.7658L-53.4265 -54.0594L-52.7201 -53.3516L-52.0123 -54.058L-51.3045 -54.7645L-52.0109 -55.4723L-52.7187 -54.7658ZM-35.039 -71.0286L-35.7466 -70.322L488.22 454.351L488.927 453.645L489.635 452.938L-34.3314 -71.7352L-35.039 -71.0286ZM488.927 453.645L488.219 454.351L488.926 455.059L489.634 454.352L490.341 453.646L489.635 452.938L488.927 453.645ZM489.634 454.352L488.927 453.645L487.512 455.057L488.218 455.765L488.924 456.473L490.34 455.06L489.634 454.352ZM488.218 455.765L488.926 455.059L488.219 454.351L487.512 455.057L486.804 455.764L487.51 456.472L488.218 455.765ZM487.512 455.057L488.219 454.351L-35.747 -70.3224L-36.4546 -69.6158L-37.1622 -68.9091L486.804 455.764L487.512 455.057ZM-36.4546 -69.6158L-35.7468 -70.3222L-36.4532 -71.03L-37.161 -70.3236L-37.8688 -69.6172L-37.1624 -68.9094L-36.4546 -69.6158ZM-37.161 -70.3236L-36.4546 -69.6158L-35.039 -71.0286L-35.7454 -71.7364L-36.4518 -72.4442L-37.8674 -71.0314L-37.161 -70.3236ZM-35.7454 -71.7364L-36.4532 -71.03L-35.7468 -70.3222L-35.039 -71.0286L-34.3312 -71.735L-35.0376 -72.4428L-35.7454 -71.7364ZM-18.0705 -87.9985L-18.7781 -87.2918L505.188 437.381L505.896 436.675L506.603 435.968L-17.3629 -88.7051L-18.0705 -87.9985ZM505.896 436.675L505.188 437.381L505.894 438.089L506.602 437.383L507.31 436.676L506.603 435.968L505.896 436.675ZM506.602 437.383L505.896 436.675L504.48 438.088L505.186 438.795L505.893 439.503L507.308 438.09L506.602 437.383ZM505.186 438.795L505.894 438.089L505.188 437.381L504.48 438.088L503.772 438.794L504.479 439.502L505.186 438.795ZM504.48 438.088L505.188 437.381L-18.7785 -87.2923L-19.4861 -86.5856L-20.1937 -85.879L503.772 438.794L504.48 438.088ZM-19.4861 -86.5856L-18.7783 -87.2921L-19.4847 -87.9999L-20.1925 -87.2934L-20.9003 -86.587L-20.1939 -85.8792L-19.4861 -86.5856ZM-20.1925 -87.2934L-19.4861 -86.5856L-18.0705 -87.9985L-18.7769 -88.7063L-19.4833 -89.4141L-20.8989 -88.0012L-20.1925 -87.2934ZM-18.7769 -88.7063L-19.4847 -87.9999L-18.7783 -87.2921L-18.0705 -87.9985L-17.3627 -88.7049L-18.0691 -89.4127L-18.7769 -88.7063ZM-1.10202 -104.97L-1.80961 -104.263L522.157 420.41L522.864 419.703L523.572 418.997L-0.39444 -105.676L-1.10202 -104.97ZM522.864 419.703L522.156 420.41L522.863 421.118L523.571 420.411L524.278 419.705L523.572 418.997L522.864 419.703ZM523.571 420.411L522.864 419.703L521.448 421.116L522.155 421.824L522.861 422.532L524.277 421.119L523.571 420.411ZM522.155 421.824L522.863 421.118L522.156 420.41L521.448 421.116L520.741 421.823L521.447 422.531L522.155 421.824ZM521.448 421.116L522.156 420.41L-1.81004 -104.264L-2.51762 -103.557L-3.2252 -102.85L520.741 421.823L521.448 421.116ZM-2.51762 -103.557L-1.80982 -104.263L-2.51624 -104.971L-3.22403 -104.265L-3.93183 -103.558L-3.22542 -102.85L-2.51762 -103.557ZM-3.22403 -104.265L-2.51762 -103.557L-1.10202 -104.97L-1.80844 -105.678L-2.51486 -106.385L-3.93045 -104.972L-3.22403 -104.265ZM-1.80844 -105.678L-2.51624 -104.971L-1.80982 -104.263L-1.10202 -104.97L-0.394227 -105.676L-1.10064 -106.384L-1.80844 -105.678ZM15.8706 -121.941L15.163 -121.234L539.129 403.439L539.837 402.732L540.544 402.026L16.5782 -122.648L15.8706 -121.941ZM539.837 402.732L539.129 403.439L539.835 404.146L540.543 403.44L541.251 402.734L540.545 402.026L539.837 402.732ZM540.543 403.44L539.837 402.732L538.421 404.145L539.128 404.853L539.834 405.561L541.25 404.148L540.543 403.44ZM539.128 404.853L539.835 404.146L539.129 403.439L538.421 404.145L537.713 404.851L538.42 405.559L539.128 404.853ZM538.421 404.145L539.129 403.438L15.1626 -121.235L14.455 -120.528L13.7474 -119.822L537.714 404.852L538.421 404.145ZM14.455 -120.528L15.1628 -121.235L14.4564 -121.942L13.7486 -121.236L13.0408 -120.53L13.7472 -119.822L14.455 -120.528ZM13.7486 -121.236L14.455 -120.528L15.8706 -121.941L15.1642 -122.649L14.4578 -123.357L13.0422 -121.944L13.7486 -121.236ZM15.1642 -122.649L14.4564 -121.942L15.1628 -121.235L15.8706 -121.941L16.5784 -122.647L15.872 -123.355L15.1642 -122.649ZM32.8432 -138.911L32.1357 -138.204L556.102 386.469L556.809 385.762L557.517 385.056L33.5508 -139.617L32.8432 -138.911ZM556.809 385.762L556.102 386.469L556.808 387.177L557.516 386.47L558.224 385.764L557.517 385.056L556.809 385.762ZM557.516 386.47L556.809 385.762L555.394 387.175L556.1 387.883L556.807 388.591L558.222 387.178L557.516 386.47ZM556.1 387.883L556.808 387.177L556.102 386.469L555.394 387.175L554.686 387.882L555.392 388.589L556.1 387.883ZM555.394 387.175L556.101 386.469L32.1352 -138.205L31.4276 -137.498L30.7201 -136.791L554.686 387.882L555.394 387.175ZM31.4276 -137.498L32.1354 -138.204L31.429 -138.912L30.7212 -138.206L30.0134 -137.499L30.7199 -136.792L31.4276 -137.498ZM30.7212 -138.206L31.4276 -137.498L32.8432 -138.911L32.1368 -139.619L31.4304 -140.326L30.0148 -138.914L30.7212 -138.206ZM32.1368 -139.619L31.429 -138.912L32.1354 -138.204L32.8432 -138.911L33.551 -139.617L32.8446 -140.325L32.1368 -139.619ZM49.8124 -155.881L49.1048 -155.175L573.071 369.498L573.779 368.792L574.486 368.085L50.52 -156.588L49.8124 -155.881ZM573.779 368.792L573.071 369.498L573.777 370.206L574.485 369.5L575.193 368.793L574.486 368.085L573.779 368.792ZM574.485 369.5L573.779 368.792L572.363 370.205L573.069 370.912L573.776 371.62L575.191 370.207L574.485 369.5ZM573.069 370.912L573.777 370.206L573.071 369.498L572.363 370.205L571.655 370.911L572.362 371.619L573.069 370.912ZM572.363 370.205L573.071 369.498L49.1044 -155.175L48.3968 -154.469L47.6892 -153.762L571.655 370.911L572.363 370.205ZM48.3968 -154.469L49.1046 -155.175L48.3982 -155.883L47.6904 -155.176L46.9826 -154.47L47.689 -153.762L48.3968 -154.469ZM47.6904 -155.176L48.3968 -154.469L49.8124 -155.881L49.106 -156.589L48.3996 -157.297L46.984 -155.884L47.6904 -155.176ZM49.106 -156.589L48.3982 -155.883L49.1046 -155.175L49.8124 -155.881L50.5202 -156.588L49.8138 -157.296L49.106 -156.589ZM66.7844 -172.852L66.0768 -172.145L590.043 352.528L590.75 351.821L591.458 351.115L67.492 -173.559L66.7844 -172.852ZM590.75 351.821L590.043 352.528L590.749 353.235L591.457 352.529L592.165 351.823L591.458 351.115L590.75 351.821ZM591.457 352.529L590.75 351.821L589.335 353.234L590.041 353.942L590.748 354.65L592.163 353.237L591.457 352.529ZM590.041 353.942L590.749 353.235L590.043 352.528L589.335 353.234L588.627 353.94L589.334 354.648L590.041 353.942ZM589.335 353.234L590.042 352.527L66.0764 -172.146L65.3688 -171.439L64.6612 -170.733L588.627 353.941L589.335 353.234ZM65.3688 -171.439L66.0766 -172.146L65.3702 -172.853L64.6624 -172.147L63.9546 -171.441L64.661 -170.733L65.3688 -171.439ZM64.6624 -172.147L65.3688 -171.439L66.7844 -172.852L66.078 -173.56L65.3715 -174.268L63.9559 -172.855L64.6624 -172.147ZM66.078 -173.56L65.3702 -172.853L66.0766 -172.146L66.7844 -172.852L67.4922 -173.558L66.7858 -174.266L66.078 -173.56ZM83.7536 -189.823L83.046 -189.116L607.012 335.557L607.72 334.851L608.427 334.144L84.4611 -190.529L83.7536 -189.823ZM607.72 334.851L607.012 335.557L607.718 336.265L608.426 335.558L609.134 334.852L608.427 334.144L607.72 334.851ZM608.426 335.558L607.72 334.851L606.304 336.264L607.01 336.971L607.717 337.679L609.132 336.266L608.426 335.558ZM607.01 336.971L607.718 336.265L607.012 335.557L606.304 336.264L605.596 336.97L606.303 337.678L607.01 336.971ZM606.304 336.264L607.012 335.557L83.0455 -189.116L82.338 -188.41L81.6304 -187.703L605.596 336.97L606.304 336.264ZM82.338 -188.41L83.0458 -189.116L82.3393 -189.824L81.6315 -189.118L80.9237 -188.411L81.6302 -187.703L82.338 -188.41ZM81.6315 -189.118L82.338 -188.41L83.7536 -189.823L83.0471 -190.53L82.3407 -191.238L80.9251 -189.825L81.6315 -189.118ZM83.0471 -190.53L82.3393 -189.824L83.0458 -189.116L83.7536 -189.823L84.4613 -190.529L83.7549 -191.237L83.0471 -190.53ZM100.726 -206.794L100.019 -206.087L623.985 318.586L624.692 317.879L625.4 317.173L101.434 -207.5L100.726 -206.794ZM624.692 317.879L623.985 318.586L624.691 319.294L625.399 318.587L626.107 317.881L625.4 317.173L624.692 317.879ZM625.399 318.587L624.692 317.879L623.277 319.292L623.983 320L624.69 320.708L626.105 319.295L625.399 318.587ZM623.983 320L624.691 319.294L623.985 318.586L623.277 319.292L622.569 319.999L623.275 320.706L623.983 320ZM623.277 319.292L623.984 318.586L100.018 -206.088L99.3106 -205.381L98.603 -204.674L622.569 319.999L623.277 319.292ZM99.3106 -205.381L100.018 -206.087L99.312 -206.795L98.6042 -206.089L97.8964 -205.382L98.6028 -204.675L99.3106 -205.381ZM98.6042 -206.089L99.3106 -205.381L100.726 -206.794L100.02 -207.502L99.3134 -208.209L97.8978 -206.797L98.6042 -206.089ZM100.02 -207.502L99.312 -206.795L100.018 -206.087L100.726 -206.794L101.434 -207.5L100.728 -208.208L100.02 -207.502Z" fill="black"/>
</g>
</svg>
