<svg width="58" height="41" viewBox="0 0 58 41" fill="none" xmlns="http://www.w3.org/2000/svg">
<path d="M14.8322 39.4957C14.6519 39.7081 14.3911 39.8358 14.1127 39.8477L5.56179 40.2156C5.12615 40.2343 4.87733 39.7251 5.15936 39.3926L13.1569 29.9651C13.5006 29.5601 13.4678 28.9568 13.0819 28.5916L4.09 20.0823C3.77308 19.7823 3.96574 19.2492 4.40125 19.2208L13.1691 18.6486C13.4576 18.6298 13.7408 18.737 13.9445 18.9421L23.1791 28.2396C23.545 28.608 23.5686 29.1955 23.2327 29.5915L14.8322 39.4957ZM29.5325 23.1786C29.1641 23.5445 28.5765 23.5681 28.1806 23.2322L18.2764 14.8317C18.0639 14.6514 17.9363 14.3906 17.9243 14.1122L17.6054 6.7039C17.5682 5.83258 18.5865 5.33479 19.2516 5.89906L27.8069 13.1564C28.212 13.5001 28.8153 13.4673 29.1804 13.0814L36.9016 4.92151C37.5016 4.28749 38.5691 4.67291 38.6259 5.54394L39.1228 13.1694C39.1415 13.4577 39.035 13.7404 38.83 13.944L29.5325 23.1786ZM6.65475 32.36C5.25704 33.9319 2.84967 34.073 1.27783 32.6753C-0.293988 31.2776 -0.435173 28.8702 0.962534 27.2984C2.36026 25.7267 4.76768 25.5855 6.33946 26.9831C7.91124 28.3807 8.05229 30.7882 6.65475 32.36ZM30.7896 6.33823C29.392 7.90997 26.9853 8.05157 25.4134 6.65417C23.8416 5.25646 23.7004 2.84909 25.0981 1.27725C26.4959 -0.29428 28.9027 -0.434932 30.4744 0.962684C32.0458 2.36034 32.1869 4.7665 30.7896 6.33823ZM52.6953 35.7398C53.3291 36.3398 52.9437 37.4072 52.0729 37.4641L44.4474 37.9611C44.1591 37.9798 43.8765 37.8732 43.6728 37.6682L34.4375 28.37C34.0719 28.0017 34.0489 27.4147 34.3846 27.0188L42.7851 17.1146C42.9654 16.9021 43.2262 16.7745 43.5046 16.7626L50.9129 16.4437C51.7842 16.4065 52.282 17.4247 51.7178 18.0898L44.4597 26.6445C44.1161 27.0495 44.1491 27.6528 44.5347 28.018L52.6953 35.7398ZM56.6549 29.3133C55.2571 30.8851 52.8498 31.0263 51.2779 29.6286C49.7061 28.2309 49.5649 25.8235 50.9626 24.2516C52.3604 22.68 54.7678 22.5387 56.3396 23.9364C57.9113 25.334 58.0524 27.7414 56.6549 29.3133Z" fill="#00CFD0"/>
</svg>
