<svg width="69" height="69" viewBox="0 0 69 69" fill="none" xmlns="http://www.w3.org/2000/svg">
<path d="M20.5466 45.2304C20.3663 45.4429 20.1055 45.5705 19.8271 45.5825L11.2762 45.9504C10.8406 45.969 10.5917 45.4599 10.8738 45.1273L18.8713 35.6999C19.215 35.2948 19.1822 34.6915 18.7963 34.3264L9.80441 25.817C9.48749 25.517 9.68015 24.984 10.1157 24.9556L18.8836 24.3833C19.172 24.3645 19.4552 24.4718 19.6589 24.6768L28.8935 33.9744C29.2594 34.3427 29.283 34.9303 28.9471 35.3263L20.5466 45.2304ZM35.2469 28.9133C34.8785 29.2792 34.291 29.3028 33.895 28.967L23.9908 20.5665C23.7783 20.3862 23.6507 20.1254 23.6388 19.847L23.3199 12.4387C23.2826 11.5673 24.3009 11.0696 24.966 11.6338L33.5213 18.8912C33.9264 19.2349 34.5297 19.202 34.8948 18.8162L42.616 10.6563C43.216 10.0223 44.2835 10.4077 44.3403 11.2787L44.8373 18.9041C44.8559 19.1924 44.7494 19.4752 44.5444 19.6787L35.2469 28.9133ZM12.3692 38.0948C10.9715 39.6666 8.56408 39.8078 6.99224 38.4101C5.42043 37.0124 5.27924 34.605 6.67695 33.0331C8.07468 31.4615 10.4821 31.3202 12.0539 32.7178C13.6257 34.1155 13.7667 36.5229 12.3692 38.0948ZM36.504 12.073C35.1064 13.6447 32.6997 13.7863 31.1278 12.3889C29.556 10.9912 29.4148 8.58386 30.8126 7.01201C32.2103 5.44049 34.6171 5.29983 36.1888 6.69745C37.7603 8.09511 37.9013 10.5013 36.504 12.073ZM58.4097 41.4746C59.0435 42.0746 58.6582 43.142 57.7873 43.1989L50.1619 43.6958C49.8735 43.7145 49.5909 43.608 49.3873 43.403L40.1519 34.1048C39.7863 33.7364 39.7633 33.1494 40.099 32.7535L48.4995 22.8494C48.6798 22.6369 48.9406 22.5093 49.219 22.4973L56.6273 22.1784C57.4986 22.1413 57.9964 23.1595 57.4322 23.8246L50.1741 32.3793C49.8305 32.7842 49.8635 33.3876 50.2491 33.7528L58.4097 41.4746ZM62.3693 35.0481C60.9716 36.6199 58.5642 36.7611 56.9923 35.3633C55.4205 33.9656 55.2793 31.5583 56.6771 29.9864C58.0748 28.4148 60.4822 28.2735 62.054 29.6711C63.6258 31.0688 63.7668 33.4762 62.3693 35.0481Z" fill="#00CFD0"/>
</svg>
