<svg width="120" height="120" viewBox="0 0 120 120" fill="none" xmlns="http://www.w3.org/2000/svg">
<path d="M100 50C100 80 60 110 60 110C60 110 20 80 20 50C20 39.3913 24.2143 29.2172 31.7157 21.7157C39.2172 14.2143 49.3913 10 60 10C70.6087 10 80.7828 14.2143 88.2843 21.7157C95.7857 29.2172 100 39.3913 100 50Z" stroke="#00CFD0" stroke-width="4" stroke-linecap="round" stroke-linejoin="round"/>
<path d="M60 65C68.2843 65 75 58.2843 75 50C75 41.7157 68.2843 35 60 35C51.7157 35 45 41.7157 45 50C45 58.2843 51.7157 65 60 65Z" stroke="#00CFD0" stroke-width="4" stroke-linecap="round" stroke-linejoin="round"/>
</svg>
