<svg width="48" height="48" viewBox="0 0 48 48" fill="none" xmlns="http://www.w3.org/2000/svg">
<rect width="48" height="48" rx="24" fill="#00CFD0"/>
<path d="M28.4103 13.4961C26.8269 13.4961 25.2814 13.9946 24 14.9097C22.7185 13.9946 21.1731 13.4961 19.5896 13.4961C15.4047 13.4961 12 16.9008 12 21.0858C12 22.7271 12.5673 24.3567 13.6405 25.7984C15.3878 28.1457 23.6662 34.2565 24 34.5024C24.3338 34.2565 32.6122 28.1457 34.3595 25.7984C35.4327 24.3567 36 22.727 36 21.0858C36 16.9008 32.5953 13.4961 28.4103 13.4961ZM19.7548 29.4136V29.4742C18.4632 28.44 17.1442 27.3412 16.1482 26.4123C16.398 25.1005 17.5529 24.1055 18.9363 24.1055C20.123 24.1055 21.171 24.8467 21.5861 25.9235C20.4804 26.6906 19.7548 27.9688 19.7548 29.4136ZM16.8356 20.5985C16.8356 19.4401 17.778 18.4977 18.9364 18.4977C20.0947 18.4977 21.0371 19.4401 21.0371 20.5985C21.0371 21.7568 20.0947 22.6992 18.9364 22.6992C17.778 22.6992 16.8356 21.7568 16.8356 20.5985ZM26.8389 30.585C25.6205 31.5356 24.5583 32.3357 24 32.7529C23.4417 32.3358 22.3795 31.5356 21.1611 30.5851V29.4136C21.1611 27.8482 22.4346 26.5747 24 26.5747C25.5654 26.5747 26.8389 27.8482 26.8389 29.4136V30.585ZM21.8993 23.0676C21.8993 21.9093 22.8416 20.9669 24 20.9669C25.1584 20.9669 26.1007 21.9093 26.1007 23.0676C26.1007 24.226 25.1583 25.1683 24 25.1683C22.8417 25.1683 21.8993 24.226 21.8993 23.0676ZM28.2451 29.4741V29.4136C28.2451 27.9688 27.5196 26.6907 26.4138 25.9235C26.8289 24.8467 27.877 24.1055 29.0636 24.1055C30.4471 24.1055 31.6019 25.1004 31.8518 26.4122C30.8558 27.3411 29.5368 28.4399 28.2451 29.4741ZM26.9629 20.5985C26.9629 19.4401 27.9052 18.4977 29.0636 18.4977C30.222 18.4977 31.1643 19.4401 31.1643 20.5985C31.1643 21.7568 30.222 22.6992 29.0636 22.6992C27.9053 22.6992 26.9629 21.7568 26.9629 20.5985ZM33.2315 24.9587C33.1571 25.0586 33.0688 25.1667 32.9692 25.2811C32.6202 24.4648 32.0227 23.7792 31.272 23.3202C32.0637 22.6767 32.5706 21.6958 32.5706 20.5985C32.5706 18.6647 30.9974 17.0915 29.0636 17.0915C27.349 17.0915 25.9188 18.3287 25.6165 19.957C25.1324 19.7044 24.5828 19.5607 24 19.5607C23.4172 19.5607 22.8676 19.7044 22.3835 19.957C22.0811 18.3287 20.651 17.0915 18.9364 17.0915C17.0026 17.0915 15.4294 18.6647 15.4294 20.5985C15.4294 21.6958 15.9363 22.6766 16.728 23.3202C15.9774 23.7792 15.3798 24.4648 15.0308 25.2811C14.9313 25.1667 14.8429 25.0586 14.7685 24.9587C13.8773 23.7615 13.4062 22.4222 13.4062 21.0858C13.4062 17.6762 16.1801 14.9023 19.5896 14.9023C21.0347 14.9023 22.441 15.412 23.5493 16.3374L24 16.7136L24.4507 16.3374C25.559 15.412 26.9653 14.9023 28.4104 14.9023C31.8199 14.9023 34.5938 17.6762 34.5938 21.0858C34.5938 22.4222 34.1227 23.7615 33.2315 24.9587Z" fill="white"/>
</svg>
