<svg width="120" height="120" viewBox="0 0 120 120" fill="none" xmlns="http://www.w3.org/2000/svg">
<path d="M109.987 84.6005V99.6005C109.993 100.993 109.708 102.371 109.15 103.647C108.592 104.923 107.774 106.068 106.748 107.01C105.722 107.951 104.51 108.668 103.191 109.114C101.872 109.56 100.474 109.726 99.0875 109.6C83.7016 107.929 68.9225 102.671 55.9375 94.2505C43.8566 86.5738 33.6141 76.3313 25.9375 64.2505C17.4873 51.2065 12.2287 36.3555 10.5875 20.9005C10.4625 19.5178 10.6268 18.1243 11.07 16.8086C11.5131 15.4929 12.2253 14.2839 13.1613 13.2586C14.0973 12.2332 15.2365 11.414 16.5064 10.8531C17.7763 10.2922 19.1492 10.0018 20.5375 10.0005H35.5375C37.964 9.9766 40.3164 10.8359 42.1563 12.4181C43.9961 14.0004 45.1978 16.1977 45.5375 18.6005C46.1706 23.4008 47.3447 28.1141 49.0375 32.6505C49.7102 34.4401 49.8558 36.3851 49.457 38.2549C49.0582 40.1247 48.1318 41.841 46.7875 43.2005L40.4375 49.5505C47.5552 62.0682 57.9197 72.4327 70.4375 79.5505L76.7875 73.2005C78.1469 71.8562 79.8632 70.9297 81.7331 70.531C83.6029 70.1322 85.5478 70.2778 87.3375 70.9505C91.8738 72.6432 96.5871 73.8174 101.387 74.4505C103.816 74.7931 106.034 76.0165 107.62 77.888C109.206 79.7594 110.048 82.1484 109.987 84.6005Z" stroke="#00CACB" stroke-width="4" stroke-linecap="round" stroke-linejoin="round"/>
</svg>
