<svg width="48" height="48" viewBox="0 0 48 48" fill="none" xmlns="http://www.w3.org/2000/svg">
<rect width="48" height="48" rx="24" fill="#00CFD0"/>
<path d="M26.1065 22.3164C26.1065 21.1533 25.1603 20.207 23.9972 20.207C22.834 20.207 21.8878 21.1533 21.8878 22.3164C21.8878 23.3708 22.2832 24.3643 23.004 25.1277L21.3906 26.7411L22.385 27.7354L23.9972 26.1233L25.6094 27.7355L26.6037 26.7411L24.9903 25.1277C25.711 24.3643 26.1065 23.3708 26.1065 22.3164ZM23.9972 24.1307C23.5428 23.6337 23.294 22.9942 23.294 22.3165C23.294 21.9288 23.6095 21.6133 23.9972 21.6133C24.3849 21.6133 24.7003 21.9288 24.7003 22.3165C24.7003 22.9941 24.4515 23.6336 23.9972 24.1307Z" fill="white"/>
<path d="M29.625 13.1758C27.2178 13.1758 25.0667 14.5307 24 16.5992C22.9333 14.5306 20.7822 13.1758 18.375 13.1758C14.5185 13.1758 12 16.2898 12 20.2393C12 25.2936 16.2766 28.0744 21.7969 32.7991C22.2249 33.1655 22.3287 33.2579 24.1406 34.8269C24.7525 34.299 24.7732 34.2737 26.8688 32.4773C32.9484 27.2658 36 24.6499 36 20.2393C36 16.2894 33.4809 13.1758 29.625 13.1758ZM25.9536 31.4096C25.3707 31.9093 24.7717 32.4228 24.1413 32.9668C23.3415 32.2747 23.0972 32.0603 22.6106 31.6445C17.2351 27.0511 13.4062 24.5473 13.4062 20.2393C13.4062 16.9084 15.4495 14.5821 18.375 14.5821C20.6223 14.5821 22.5825 16.0998 23.1419 18.273L23.2777 18.8008H24.7222L24.858 18.273C25.4174 16.0998 27.3776 14.5821 29.6249 14.5821C32.5504 14.5821 34.5937 16.9084 34.5937 20.2393C34.5938 24.0175 31.7984 26.3994 25.9536 31.4096Z" fill="white"/>
</svg>
