<svg width="144" height="279" viewBox="0 0 144 279" fill="none" xmlns="http://www.w3.org/2000/svg">
<path d="M7.08594 -23.1299C27.1373 -12.6485 35.2474 -8.25408 46.6152 -1.38672C73.4131 14.802 92.7664 30.8722 104.206 48.4795C113.422 62.6639 117.032 77.3521 114.386 92.6055C136.893 105.377 145.624 123.603 142.804 146.291C140.528 164.594 131.188 184.438 115.905 207.509C101.753 228.871 75.4537 254.806 60.335 261.938C55.8168 264.07 50.6293 265.906 44.751 267.535C36.7412 269.755 13.7057 274.227 15.3467 273.846C12.5862 274.487 10.418 275.203 5.5625 276.968C3.10663 277.861 2.01049 278.25 0.626953 278.706L0 276.807C1.35832 276.359 2.44177 275.974 4.87891 275.088C9.80974 273.296 12.0289 272.563 14.8936 271.897C13.3238 272.262 36.2986 267.802 44.2168 265.607C49.9935 264.006 55.0777 262.207 59.4824 260.129C74.222 253.175 100.27 227.488 114.237 206.404C129.364 183.57 138.591 163.966 140.819 146.044C143.516 124.35 135.345 107.026 113.988 94.6826C112.389 102.297 109.234 110.052 104.442 117.955C93.7711 135.557 70.4956 143.962 50.3174 139.366C28.9615 134.502 19.2063 117.129 29.0195 93.5176C33.3566 83.0824 48.0293 79.3504 68.8877 80.9932C84.8046 82.2468 103.52 86.8889 111.46 91.0166C111.82 91.2037 112.177 91.3924 112.53 91.582C114.866 77.0709 111.33 63.1163 102.528 49.5693C91.2887 32.2699 72.1428 16.3713 45.5811 0.325195C34.2606 -6.51351 26.1735 -10.8954 6.15918 -21.3574L7.08594 -23.1299ZM68.7305 82.9873C48.6699 81.4074 34.7467 84.9494 30.8662 94.2861C21.5424 116.721 30.5824 132.821 50.7607 137.417C70.1381 141.831 92.531 133.744 102.731 116.919C107.534 108.997 110.648 101.249 112.157 93.6543C111.625 93.3638 111.085 93.0767 110.537 92.792C102.86 88.8009 84.3992 84.2214 68.7305 82.9873Z" fill="black"/>
</svg>
