<svg width="191" height="331" viewBox="0 0 191 331" fill="none" xmlns="http://www.w3.org/2000/svg">
<path d="M93.0026 323.522C98.1265 320.838 106.682 315.759 119.269 307.851C119.619 307.631 119.794 307.219 120.064 306.02C120.077 305.963 120.077 305.963 120.09 305.905C120.389 304.585 120.629 303.93 121.221 303.286C123.524 300.781 125.508 298.924 130.051 294.883L130.069 294.866C134.823 290.637 136.88 288.701 139.22 286.092C143.325 281.517 148.264 274.809 153.891 266.314C155.892 263.293 157.964 260.069 160.103 256.657C163.765 250.817 167.496 244.632 171.428 237.937C172.914 235.408 174.363 232.918 175.975 230.13C176.691 228.892 178.975 224.93 179.404 224.189C193.044 200.614 190.239 174.251 174.278 146.556C170.811 140.541 167.433 135.528 163.767 131.135C163.671 131.019 163.336 130.616 163.289 130.56C163.098 130.33 162.947 130.151 162.8 129.979C161.054 127.939 159.769 127 158.412 127.002C150.962 127.015 149.364 127.687 148.181 130.149C146.785 133.054 146.088 134.066 143.684 135.805C125.205 149.168 113.09 157.399 100.192 165.004C84.111 174.485 68.7304 181.641 52.6308 186.829C32.5691 193.294 15.1316 188.442 6.31788 171.327C-1.76822 155.625 -1.81414 135.545 4.59203 111.281C8.01021 98.3336 13.0503 84.8215 20.0243 68.9433C21.8288 64.8348 23.6884 60.7283 26.0467 55.6123C26.2845 55.0964 30.4511 46.0949 31.5523 43.6874C35.5674 34.909 37.7672 29.6098 38.9587 25.5709C40.3123 20.9827 41.0419 17.2085 42.4182 8.63C43.1114 4.30921 43.4349 2.39021 43.897 0L45.8606 0.379579C45.404 2.74197 45.0828 4.64703 44.3929 8.94683C43.0031 17.6095 42.2628 21.4395 40.877 26.1368C39.6497 30.2969 37.4256 35.6547 33.3711 44.5193C32.2676 46.9317 28.0992 55.9373 27.863 56.4495C25.5094 61.5555 23.6544 65.6518 21.8555 69.7476C14.9196 85.5388 9.91308 98.961 6.52577 111.791C0.233914 135.623 0.278766 155.232 8.09596 170.412C16.4085 186.554 32.8069 191.116 52.0174 184.925C67.9673 179.786 83.2157 172.691 99.1766 163.281C112.008 155.716 124.08 147.513 142.512 134.184C144.58 132.688 145.115 131.912 146.378 129.283C147.961 125.988 150.273 125.017 158.408 125.002C160.544 124.999 162.214 126.219 164.319 128.678C164.474 128.859 164.63 129.045 164.826 129.28C164.874 129.338 165.208 129.74 165.303 129.854C169.051 134.345 172.491 139.45 176.011 145.558C192.297 173.817 195.18 200.915 181.135 225.191C180.707 225.93 178.423 229.891 177.706 231.131C176.092 233.923 174.641 236.416 173.153 238.95C169.211 245.66 165.47 251.861 161.798 257.719C159.65 261.145 157.569 264.382 155.558 267.418C149.882 275.988 144.892 282.765 140.709 287.428C138.302 290.111 136.209 292.082 131.399 296.361L131.38 296.377C126.887 300.374 124.936 302.2 122.693 304.64C122.42 304.938 122.263 305.365 122.041 306.346C122.028 306.403 122.028 306.403 122.016 306.46C121.626 308.188 121.309 308.931 120.333 309.544C107.705 317.478 99.1113 322.58 93.9305 325.294C89.7145 327.502 87.654 328.306 86.9169 327.421C85.7876 328.326 84.0294 329.736 83.1988 330.4L81.9494 328.839C83.1322 327.892 86.2085 325.424 86.6522 325.071C87.1285 324.691 87.4288 324.456 87.6308 324.305C87.7485 324.217 87.8388 324.152 87.9149 324.104C87.9856 324.059 87.9856 324.059 88.096 324.003C88.2373 323.912 88.2373 323.912 88.9156 323.979C89.4205 324.332 89.4205 324.332 89.5404 324.817C89.533 325.085 89.5321 325.12 89.5006 325.213C90.3681 324.852 91.5295 324.293 93.0026 323.522Z" fill="black"/>
</svg>
